<!--?xml version="1.0" encoding="utf-8"?-->
<!-- Generator: Adobe Illustrator 18.0.0, SVG Export Plug-In . SVG Version: 6.00 Build 0)  -->

<svg version="1.1" id="_x32_" xmlns="http://www.w3.org/2000/svg" xmlns:xlink="http://www.w3.org/1999/xlink" x="0px" y="0px" viewBox="0 0 512 512" style="width: 256px; height: 256px; opacity: 1;" xml:space="preserve">
<style type="text/css">
	.st0{fill:#4B4B4B;}
</style>
<g>
	<path class="st0" d="M418.524,162.527c-36.016,0-68.207,20.192-83.836,52.613c-25.822-5.875-52.285-8.848-78.658-8.848
		c-26.385,0-52.867,2.98-78.533,8.942c-15.81-32.512-48.004-52.707-84.02-52.707C41.934,162.527,0,204.457,0,256.004
		c0,51.539,41.934,93.468,93.476,93.468c36.016,0,68.207-20.195,83.836-52.613c25.834,5.867,52.309,8.848,78.688,8.848
		c26.379,0,52.854-2.98,78.508-8.934c15.806,32.504,48,52.699,84.016,52.699c51.543,0,93.476-41.93,93.476-93.468
		C512,204.457,470.066,162.527,418.524,162.527z M80.209,248.84c-16.326,0-29.611-13.285-29.611-29.613
		c0-16.328,13.285-29.609,29.611-29.609c16.328,0,29.614,13.281,29.614,29.609C109.822,235.555,96.537,248.84,80.209,248.84z" style="fill: rgb(0, 0, 0);"></path>
</g>
</svg>
